<?xml version="1.0" encoding="utf-8"?>
<!-- Generator: Adobe Illustrator 21.0.0, SVG Export Plug-In . SVG Version: 6.00 Build 0)  -->
<svg version="1.1" id="Layer_1" xmlns="http://www.w3.org/2000/svg" xmlns:xlink="http://www.w3.org/1999/xlink" x="0px" y="0px"
	 viewBox="0 0 20 20" style="enable-background:new 0 0 20 20;" xml:space="preserve">
<style type="text/css">
	.st0{fill:#A7A9AC;}
</style>
<g>
	<path class="st0" d="M10,17.6c-3.8,0-6.8-3.4-6.8-7.6c0-4.2,3.1-7.6,6.8-7.6c3.8,0,6.8,3.4,6.8,7.6C16.8,14.2,13.8,17.6,10,17.6
		 M10,2.2c-3.8,0-7,3.5-7,7.8c0,4.3,3.1,7.8,7,7.8c3.8,0,7-3.5,7-7.8C17,5.7,13.8,2.2,10,2.2"/>
	<path class="st0" d="M9.5,15.2c-0.1,0-0.1,0-0.2,0c0.2,0,0.5,0.1,0.7,0.1C9.8,15.2,9.6,15.2,9.5,15.2"/>
	<path class="st0" d="M10.5,4.7c-0.1,0-0.2,0-0.3,0C10.3,4.7,10.4,4.7,10.5,4.7"/>
	<path class="st0" d="M5.5,14.1c0,0,0.1-0.1,0.2-0.1c0,0,0.1,0,0.1,0c0,0,0.1,0,0.1,0c0,0,0.1,0,0.1,0c0.1,0,0.2,0.1,0.2,0.1
		l0.1-0.1c0,0,0,0,0,0s0,0,0,0c0,0,0,0,0,0l0.1-0.1l0.2,0.2l-0.1,0.1c0,0,0,0,0,0c0,0,0,0,0,0c0,0,0,0,0,0h0l-0.6,0.5c0,0,0,0,0,0
		c0,0,0,0,0,0l-0.1,0.1c0,0-0.2-0.3-0.3-0.3c0,0,0,0,0-0.1c0,0-0.1-0.1-0.1-0.1c0,0,0,0,0-0.1c0,0,0-0.1,0-0.1
		C5.4,14.2,5.4,14.1,5.5,14.1L5.5,14.1z M5.6,14.2C5.6,14.2,5.6,14.2,5.6,14.2c-0.1,0.1-0.1,0.1-0.1,0.1c0,0.1,0,0.1,0.1,0.1
		c0,0,0.1,0.1,0.1,0.1l0,0l0.3-0.3c0,0-0.1-0.1-0.2-0.1c0,0-0.1,0-0.1,0C5.7,14.2,5.7,14.2,5.6,14.2 M5,12.8c0,0,0.1,0,0.1-0.1
		l0.1,0h0.1c0,0,0.1,0,0.1,0c0.1,0,0.1,0.1,0.2,0.1c0,0,0.1,0.1,0.1,0.1c0,0,0.1,0.1,0.1,0.1c0.1,0.1,0.1,0.2,0.1,0.3
		c0,0.1,0,0.1-0.1,0.2c0,0,0,0.1-0.1,0.1c0,0.1-0.1,0.1-0.2,0.1c-0.1,0-0.1,0.1-0.2,0.1c-0.1,0-0.1,0-0.2,0c0,0-0.1,0-0.1,0
		c-0.1,0-0.1-0.1-0.2-0.1c0,0,0-0.1-0.1-0.1c0-0.1,0-0.1-0.1-0.2c0,0,0-0.1,0-0.1c0,0,0-0.1,0-0.1c0-0.1,0-0.1,0.1-0.2
		C4.9,12.9,5,12.8,5,12.8 M5.1,12.9c0,0-0.1,0-0.1,0.1c0,0-0.1,0.1-0.1,0.2c0,0,0,0.1,0,0.1c0,0,0,0,0,0.1c0,0,0,0,0,0c0,0,0,0,0,0
		c0,0.1,0.1,0.1,0.1,0.1c0,0,0.1,0,0.2,0c0.1,0,0.2-0.1,0.3-0.2c0,0,0,0,0-0.1c0,0,0,0,0-0.1c0,0,0,0,0-0.1c0,0,0,0,0-0.1
		c0,0,0-0.1,0-0.1c0,0,0,0,0-0.1c0,0,0,0-0.1-0.1c0,0-0.1,0-0.1-0.1c-0.1,0-0.1,0-0.1,0C5.2,12.9,5.2,12.9,5.1,12.9 M4.3,11.6
		l0.2,0.1l-0.1,0.1c0,0,0,0,0,0h0c0,0,0,0,0,0c0,0,0,0,0,0c0,0,0,0,0,0V12c0,0,0,0,0,0.1c0,0.1,0,0.1,0.1,0.1c0,0,0,0,0.1,0.1
		c0.1,0.1,0.2,0.1,0.3,0c0.1,0,0.2-0.1,0.2-0.1c0,0,0-0.1,0.1-0.1c0,0,0-0.1,0-0.1c0-0.1,0-0.2,0-0.2c0,0,0,0,0,0c0,0,0,0,0,0
		c0,0,0,0,0,0c0,0,0,0,0,0c0,0,0,0,0,0H4.9l0-0.1l0.2-0.1c0,0.1,0.1,0.2,0.1,0.2v0l0,0c0,0,0,0,0,0v0c0,0,0,0.1,0,0.1v0.1
		c0,0.1,0,0.1,0,0.2c0,0.1-0.1,0.1-0.1,0.2c0,0-0.1,0.1-0.1,0.1c-0.1,0-0.1,0.1-0.2,0.1c-0.1,0-0.1,0-0.2,0c-0.1,0-0.1,0-0.2-0.1
		c-0.1,0-0.1-0.1-0.1-0.1c-0.1-0.1-0.1-0.3-0.1-0.4C4.2,11.8,4.2,11.7,4.3,11.6 M4.1,10.4l0.2,0.2l-0.1,0.1c0,0,0,0,0,0c0,0,0,0,0,0
		l0,0c0,0,0,0,0,0c0,0,0,0,0,0c0,0,0,0.1,0,0.1c0,0,0,0,0,0.1c0,0.1,0,0.1,0,0.2c0,0,0,0,0.1,0.1c0,0,0,0,0.1,0c0.1,0,0.1,0,0.2,0
		c0.1,0,0.2,0,0.2-0.1c0,0,0.1-0.1,0.1-0.1c0.1-0.1,0.1-0.1,0.1-0.2c0,0,0-0.1,0-0.1c0,0,0,0,0,0c0,0,0,0,0,0c0,0,0,0,0,0
		c0,0,0,0,0,0c0,0,0,0,0,0c0,0,0,0,0,0l0-0.1l0.2,0c0,0.1,0,0.2,0,0.2l0,0v0.2c0,0,0,0.1,0,0.1C5,10.9,5,11,4.9,11
		c0,0.1-0.1,0.1-0.1,0.1c-0.1,0.1-0.2,0.1-0.3,0.2c-0.1,0-0.3,0-0.4-0.1C4.1,11.1,4,11.1,4,11c-0.1-0.1-0.1-0.3,0-0.4
		C4,10.5,4,10.5,4.1,10.4 M5,9.2l0,0.3l-0.1,0v0l0,0h0l-0.5,0l0.4,0.5h0.1c0,0,0,0,0,0v0c0,0,0,0,0,0l0.1,0l0,0.3l-0.1,0
		c0,0,0,0,0,0v0c0,0,0,0,0,0L4,10h0c0,0,0,0,0,0l0,0c0,0,0,0,0,0H3.9l0-0.3l0.1,0c0,0,0,0,0,0.1h0l0.5,0L4.1,9.3H4.1c0,0,0,0,0,0
		c0,0,0,0,0,0H4l0-0.3l0.1,0c0,0,0,0,0,0.1h0l0.8,0.1c0,0,0,0,0,0c0,0,0,0,0,0c0,0,0,0,0,0C4.9,9.2,4.9,9.2,5,9.2L5,9.2z M4,8
		C4,8,4.1,8,4,8C4.1,8,4.1,8,4,8c0.1,0.1,0.1,0.1,0.1,0.1c0,0,0,0.1,0,0.1c0,0,0,0.1-0.1,0.1c0,0-0.1,0.1-0.1,0.1c0,0,0,0,0,0
		c0,0,0,0,0,0c0,0,0,0,0,0c0,0,0-0.1,0-0.1c0,0,0,0,0,0c0,0,0,0,0,0h0c0,0,0.1,0,0.1,0c0,0,0,0,0,0v0c0,0,0,0,0,0c0,0,0,0-0.1,0
		c0,0,0,0,0,0C3.9,8.1,3.9,8.1,4,8C3.9,8,3.9,8,4,8C3.9,8,3.9,8,4,8C4,8,4,8,4,8C4,8,4,8,4,8 M5.3,8L5.3,8c-0.1,0-0.1,0-0.1,0
		c0,0,0,0,0,0h0L4.4,7.9c0,0,0,0,0,0V7.8l-0.1,0L4.2,8.1l0.1,0c0,0,0,0,0-0.1c0,0,0,0,0,0l0.1,0l0.3,0.6L4.2,8.5c0,0,0,0,0,0V8.5
		l-0.1,0L4,8.7l0.1,0c0,0,0,0,0,0c0,0,0,0,0,0h0l0.8,0.2c0,0,0,0,0,0h0v0c0,0,0,0,0,0L5,9l0.1-0.3L5,8.7c0,0,0,0,0,0c0,0,0,0,0,0
		c0,0,0,0,0,0l-0.1,0L4.6,8.1l0.5,0.1c0,0,0,0,0,0v0.1l0.1,0L5.3,8z M4.9,6.7L5,6.9l-0.1,0c0,0,0,0,0,0c0,0,0,0,0,0h0c0,0,0,0,0,0
		c0,0,0,0,0,0c0,0,0,0-0.1,0.1c0,0,0,0,0,0.1c0,0.1,0,0.1,0,0.2c0,0,0,0.1,0,0.1c0,0,0,0.1,0,0.1c0,0.1,0.1,0.1,0.2,0.1
		c0.1,0,0.2,0.1,0.3,0c0,0,0.1,0,0.1,0c0,0,0.1,0,0.1-0.1c0,0,0.1-0.1,0.1-0.1c0,0,0-0.1,0-0.1c0,0,0,0,0,0c0,0,0-0.1,0-0.1
		c0,0,0,0,0,0c0,0,0,0,0,0c0,0,0,0,0,0l0-0.1l0.2,0.1c0,0.1-0.1,0.2-0.1,0.2l0,0c0,0,0,0,0,0c0,0,0,0,0,0c0,0,0,0,0,0c0,0,0,0,0,0
		c0,0,0,0,0,0.1c0,0-0.1,0.1-0.2,0.1C5.2,7.7,5.1,7.7,5,7.7c-0.1,0-0.1,0-0.2-0.1c-0.1,0-0.1-0.1-0.2-0.1c0-0.1-0.1-0.1-0.1-0.2
		c0-0.1,0-0.1,0-0.2c0-0.1,0-0.1,0-0.2c0-0.1,0.1-0.1,0.1-0.2c0,0,0.1,0,0.1-0.1C4.8,6.7,4.9,6.7,4.9,6.7 M6.3,6.1L6.3,6.1
		c-0.1,0-0.1,0-0.2,0L5.5,6c0,0,0-0.4,0-0.4c0,0,0,0,0-0.1L5.5,5.6L5.3,5.8l0.1,0.1c0,0,0,0,0,0c0,0,0,0,0,0v0h0l0,0.5L5.2,6.2
		c0,0,0,0,0,0c0,0,0,0,0,0c0,0,0,0,0,0L5.1,6L4.9,6.3L5,6.3c0,0,0,0,0,0h0l0.6,0.5c0,0,0,0,0,0h0c0,0,0,0,0,0c0,0,0,0,0,0l0.1,0.1
		l0.2-0.2L5.9,6.6c0,0,0,0,0,0c0,0,0,0,0,0L5.6,6.4l0-0.2l0.6,0c0,0,0,0,0,0c0,0,0,0,0,0l0,0l0.1,0.1L6.3,6.1z M7.2,5.3L6.9,5.5
		L6.9,5.4c0,0,0,0,0,0c0,0,0,0,0,0c0,0,0,0,0,0L6.5,5L6.5,5.7l0.1,0c0,0,0,0,0,0c0,0,0,0,0,0c0,0,0,0,0,0l0.1,0.1L6.4,6L6.4,5.9
		c0,0,0,0,0,0v0c0,0,0,0,0,0L5.8,5.3c0,0,0,0,0,0h0c0,0,0,0,0,0L5.7,5.2L5.9,5L6,5.1c0,0,0,0,0,0.1l0.4,0.4l0.1-0.7c0,0,0,0-0.1-0.1
		c0,0,0,0,0,0L6.2,4.7l0.2-0.2l0.1,0.1c0,0,0,0,0,0s0,0,0,0L7,5.2v0h0C7,5.2,7.1,5.2,7.2,5.3C7.1,5.2,7.1,5.2,7.2,5.3L7.2,5.3z
		 M7.3,3.8C7.3,3.8,7.3,3.8,7.3,3.8C7.3,3.8,7.3,3.8,7.3,3.8c0,0.1,0,0.1,0,0.2C7.3,4,7.2,4,7.2,4c0,0-0.1,0-0.1,0c0,0-0.1,0-0.1,0
		c0,0,0,0,0,0c0,0,0,0,0-0.1c0,0,0,0,0,0c0,0,0,0,0,0c0,0,0,0,0.1,0c0,0,0,0,0,0c0,0,0,0,0,0c0,0,0,0,0.1,0c0,0,0,0,0,0c0,0,0,0,0,0
		c0,0,0,0,0,0V3.8c0,0,0,0,0,0C7.2,3.8,7.2,3.8,7.3,3.8C7.2,3.7,7.2,3.7,7.3,3.8C7.2,3.7,7.2,3.8,7.3,3.8C7.3,3.8,7.3,3.8,7.3,3.8
		 M8.1,4.7L8.1,4.7C8.1,4.6,8.1,4.6,8.1,4.7C8,4.6,8,4.6,8,4.6s0,0,0,0v0L7.6,3.9l0,0v0c0,0,0,0,0,0c0,0,0,0,0,0l0-0.1L7.4,3.9
		L7.4,4c0,0,0,0,0,0c0,0,0,0,0,0l0,0.1L7.3,4.7L7,4.3c0,0,0,0,0,0c0,0,0,0,0,0c0,0,0,0,0,0l0-0.1L6.8,4.3l0.1,0.1c0,0,0,0,0,0
		c0,0,0,0,0,0c0,0,0,0,0,0v0l0.4,0.7c0,0,0,0,0,0v0c0,0,0,0,0,0c0,0,0,0,0,0l0.1,0.1L7.5,5l0-0.1c0,0,0,0,0,0c0,0,0,0,0,0
		c0,0,0,0,0,0l0-0.1l0.2-0.6l0.3,0.4c0,0,0,0,0,0c0,0,0,0,0,0c0,0,0,0,0,0l0.1,0.1L8.1,4.7z M9.5,3.6c0,0.1,0,0.1,0,0.2
		c0,0,0,0.1-0.1,0.1c0,0-0.1,0.1-0.1,0.1C9.2,4,9,4.1,9,4.1l0,0.2c0,0,0,0,0,0h0l0,0.1L8.9,4.5l0-0.1c0,0,0,0,0,0c0,0,0,0,0,0v0
		L8.7,3.6v0c0,0,0,0-0.1,0l0-0.1C9,3.4,9.1,3.4,9.1,3.4c0.1,0,0.1,0,0.1,0c0.1,0,0.1,0,0.1,0.1C9.4,3.4,9.5,3.5,9.5,3.6L9.5,3.6z
		 M9.3,3.6C9.3,3.6,9.3,3.6,9.3,3.6C9.3,3.5,9.2,3.5,9.2,3.5c0,0-0.1,0-0.1,0c0,0,0,0-0.1,0c0,0,0,0-0.1,0l-0.1,0l0,0L9,4
		c0,0,0.1-0.1,0.1-0.1c0,0,0.1-0.1,0.1-0.1c0,0,0,0,0,0C9.3,3.7,9.3,3.7,9.3,3.6 M10.6,4.3l-0.8,0V4.2h0c0,0,0,0,0,0l0-0.8
		c0,0,0,0,0,0c0,0,0,0,0,0c0,0,0,0,0,0V3.3l0.8,0l0,0.2h-0.1c0,0,0,0,0,0s0,0,0,0c0,0,0,0-0.1,0l-0.4,0l0,0.2h0.3c0,0,0,0,0,0
		c0,0,0,0,0,0c0,0,0,0,0,0h0.1l0,0.2h-0.1c0,0,0,0,0,0c0,0,0,0,0,0l-0.3,0l0,0.4l0.4,0c0,0,0,0,0,0c0,0,0,0,0,0c0,0,0,0,0-0.1h0.1
		V4.3z M11.7,4.7l-0.3-0.1l0-0.1h0.1c0,0,0,0,0,0l0.1-0.3c0,0-0.1,0-0.1,0c-0.1,0-0.1,0-0.2,0c-0.1,0-0.1-0.1-0.2-0.1
		c0,0,0,0-0.1-0.1c0,0,0-0.1,0-0.1c0,0,0.1-0.3,0.1-0.3l0,0v0c0,0,0,0,0,0c0,0,0,0,0,0l0-0.1l0.3,0.1l0,0.1h-0.1c0,0,0,0,0,0
		l-0.1,0.3c0,0,0,0,0,0c0,0,0,0,0,0c0,0,0,0,0.1,0c0.1,0,0.2,0,0.3,0l0.1-0.3c0,0,0,0,0,0c0,0,0,0,0,0l0-0.1L12,3.7l0,0.1h-0.1
		c0,0,0,0,0,0v0l-0.2,0.8c0,0,0,0,0,0s0,0,0,0C11.7,4.6,11.7,4.6,11.7,4.7L11.7,4.7z M12.7,5.2L12.7,5.2c0-0.1,0-0.1,0-0.1
		c0,0,0,0,0,0v0c0,0,0,0,0,0l0.4-0.7c0,0,0,0,0,0c0,0,0,0,0,0l0.1-0.1L13,4.1l0,0.1c0,0,0,0,0,0s0,0,0,0l-0.1,0.2l-0.4-0.2L12.5,4
		l0,0c0,0,0,0,0.1,0L12.6,4l-0.3-0.1l0,0.1l0,0v0l0,0l-0.4,0.7c0,0,0,0,0,0h0c0,0,0,0,0,0l0,0.1l0.3,0.1l0-0.1c0,0,0,0,0,0
		c0,0,0,0,0,0c0,0,0,0,0,0l0.2-0.3l0.4,0.2L12.6,5v0l0,0h0c0,0,0,0,0,0l0,0.1L12.7,5.2z M14,5.7c-0.1,0.1-0.1,0.1-0.2,0.1
		c0,0-0.1,0-0.1,0c0,0-0.1,0-0.1,0c-0.1,0-0.1,0-0.2,0c0,0-0.1,0-0.1-0.1c0,0-0.1,0-0.1-0.1c-0.1-0.1-0.2-0.2-0.2-0.4
		c0,0,0-0.1,0-0.1c0,0,0-0.1,0-0.1c0-0.1,0.1-0.1,0.1-0.2c0.1-0.1,0.1-0.1,0.2-0.1c0.1,0,0.2,0,0.3,0c0.1,0,0.1,0,0.2,0.1
		c0,0,0.1,0,0.1,0.1C14,5,14.1,5.1,14.1,5.1c0,0,0,0.1,0,0.1c0,0.1,0,0.2,0,0.3C14.1,5.6,14.1,5.7,14,5.7 M13.9,5.6
		c0,0,0.1-0.1,0.1-0.1c0,0,0-0.1,0-0.1c0,0,0,0,0-0.1c0,0,0,0,0-0.1c0-0.1,0-0.1,0-0.1c0,0,0,0-0.1-0.1C13.8,5,13.8,5,13.7,5
		c0,0-0.1,0-0.1,0c0,0-0.1,0-0.1,0c-0.1,0-0.1,0.1-0.2,0.1c0,0-0.1,0.1-0.1,0.1c0,0,0,0.1,0,0.1c0,0,0,0,0,0.1c0,0,0,0.1,0,0.1
		c0,0,0,0.1,0.1,0.1c0,0,0,0,0.1,0c0,0,0,0,0.1,0c0,0,0.1,0,0.1,0c0,0,0.1,0,0.1,0C13.8,5.7,13.8,5.7,13.9,5.6
		C13.8,5.6,13.8,5.6,13.9,5.6 M15.2,6.2C15.2,6.2,15.1,6.2,15.2,6.2C15.1,6.2,15.1,6.2,15.2,6.2c-0.1,0-0.2,0-0.3-0.1
		c0,0,0-0.1,0-0.1V6c0,0,0-0.1,0.1-0.1c0,0,0,0,0,0c0,0,0,0,0,0c0,0,0,0,0,0c0,0,0,0,0,0.1c0,0,0,0,0,0c0,0,0,0,0,0c0,0,0,0,0,0.1
		c0,0,0,0,0,0c0,0,0,0,0,0c0,0,0,0,0,0c0,0,0,0,0.1,0h0c0,0,0,0,0.1,0C15.2,6.1,15.2,6.1,15.2,6.2L15.2,6.2
		C15.2,6.2,15.2,6.2,15.2,6.2C15.2,6.2,15.2,6.2,15.2,6.2 M14.3,7.1L14.3,7.1C14.4,7,14.4,7,14.3,7.1L14.3,7.1L14.4,7L15,6.6v0
		c0,0,0,0,0,0s0,0,0,0c0,0,0,0,0,0l0.1,0L15,6.3l-0.1,0.1c0,0,0,0,0,0.1c0,0,0,0,0,0l-0.1,0l-0.6-0.2L14.7,6c0,0,0,0,0,0
		c0,0,0,0,0,0c0,0,0,0,0,0L14.8,6l-0.2-0.3l-0.1,0.1c0,0,0,0,0,0c0,0,0,0,0,0c0,0,0,0,0,0l0,0l-0.7,0.4c0,0,0,0,0,0s0,0,0,0
		c0,0,0,0,0,0l-0.1,0l0.2,0.3L14,6.5c0,0,0,0,0,0v0c0,0,0,0,0,0l0.1,0l0.6,0.2l-0.4,0.3c0,0,0,0,0,0c0,0,0,0,0,0l-0.1,0.1L14.3,7.1z
		 M15.6,8.3c-0.1,0-0.1,0-0.2,0c0,0-0.1,0-0.1,0c-0.1,0-0.1-0.1-0.2-0.1c0-0.1-0.2-0.2-0.2-0.2L14.8,8c0,0,0,0,0,0v0c0,0,0,0,0,0
		l-0.1,0l-0.1-0.3l0.1,0c0,0,0,0,0,0c0,0,0,0,0,0c0,0,0,0,0,0c0,0,0,0,0,0l0.7-0.2c0,0,0,0,0,0c0,0,0,0,0-0.1l0.1,0
		c0.1,0.3,0.1,0.4,0.1,0.5c0,0.1,0,0.1,0,0.1c0,0,0,0.1,0,0.1c0,0,0,0,0,0.1C15.7,8.2,15.6,8.3,15.6,8.3L15.6,8.3z M15.5,8.1
		C15.5,8.1,15.5,8.1,15.5,8.1c0.1-0.1,0.1-0.1,0.1-0.1c0,0,0-0.1,0-0.1c0,0,0,0,0-0.1c0-0.1,0-0.1,0-0.1v0l-0.4,0.1l0,0.1
		c0,0,0,0,0.1,0.1c0,0,0.1,0.1,0.1,0.1c0,0,0,0,0,0C15.4,8.1,15.4,8.1,15.5,8.1 M15,9.5l-0.1-0.8l0.1,0c0,0,0,0,0,0c0,0,0,0,0,0h0
		l0.8-0.1l0,0h0V8.5l0.1,0L16,9.3l-0.2,0l0-0.1c0,0,0,0,0,0c0,0,0,0,0,0c0,0,0,0,0-0.1v0l-0.1-0.3l-0.2,0l0.1,0.3c0,0,0,0,0,0h0
		l0,0.1l-0.2,0l0-0.1c0,0,0,0,0,0c0,0,0,0,0,0l-0.1-0.3L15,8.9l0.1,0.4c0,0,0,0,0,0.1c0,0,0,0,0,0h0l0,0.1L15,9.5z M15.8,10.5
		L15.8,10.5c0-0.1,0-0.1,0.1-0.1c0,0,0,0,0,0c0,0,0,0,0-0.1V10l-0.8,0c0,0,0,0,0,0c0,0,0,0,0,0H15l0-0.3l0.1,0c0,0,0,0,0,0s0,0,0,0
		c0.8,0,0.8,0,0.8,0v0c0,0,0,0,0,0l0.1,0l0,0.7L15.8,10.5z M14.8,11.6l0-0.3l0.1,0v0h0l0.5,0.1l-0.4-0.6l-0.1,0c0,0,0,0,0,0
		c0,0,0,0,0,0c0,0,0,0,0,0l-0.1,0l0-0.3l0.1,0v0c0,0,0,0,0,0l0.8,0.1h0c0,0,0,0,0,0c0,0,0,0,0,0l0.1,0l-0.1,0.3l-0.1,0
		c0,0,0-0.1,0-0.1c0,0,0,0,0,0l-0.5-0.1l0.4,0.6l0.1,0h0c0,0,0,0,0-0.1l0.1,0l-0.1,0.3l-0.1,0v-0.1c0,0,0,0,0,0h0l-0.8-0.1
		c0,0,0,0,0,0l0,0c0,0,0,0,0,0C14.9,11.6,14.9,11.6,14.8,11.6L14.8,11.6z M15.3,12.9l-0.1-0.2l0.1,0c0,0,0,0,0,0c0,0,0,0,0,0h0
		c0,0,0,0,0,0c0,0,0,0,0,0c0,0,0.1-0.1,0.1-0.1c0-0.1,0-0.2,0-0.3c0-0.1-0.1-0.1-0.2-0.1c-0.1,0-0.2,0-0.3,0c-0.1,0-0.1,0.1-0.2,0.1
		c0,0,0,0-0.1,0.1c0,0,0,0.1,0,0.1c0,0,0,0,0,0.1v0c0,0,0,0,0,0c0,0,0,0,0,0c0,0,0,0,0,0l0,0.1l-0.2-0.1c0-0.1,0-0.2,0.1-0.2v0
		c0,0,0,0,0,0c0,0,0,0,0,0c0,0,0.1-0.1,0.1-0.2c0-0.1,0.1-0.1,0.1-0.1c0.1-0.1,0.2-0.1,0.3-0.1c0.1,0,0.3,0.1,0.4,0.1
		c0,0.1,0.1,0.1,0.1,0.2c0,0.1,0,0.1,0,0.2c0,0.2-0.1,0.3-0.1,0.4c0,0,0,0-0.1,0.1C15.4,12.9,15.3,12.9,15.3,12.9 M14.6,13.9
		L14.6,13.9C14.7,13.8,14.7,13.8,14.6,13.9c0.1-0.1,0.1-0.1,0.1-0.1c0,0,0,0,0,0c0,0,0,0,0,0l0.1-0.2l-0.7-0.4c0,0,0,0,0,0
		c0,0,0,0,0,0.1l-0.1-0.1l0.2-0.3l0.1,0.1c0,0,0,0,0,0c0,0,0,0,0,0l0,0l0.7,0.4l0.1-0.2c0,0,0,0,0,0c0,0,0,0,0,0c0,0,0,0-0.1,0
		l0.1-0.1l0.2,0.1L14.8,14L14.6,13.9z M13.9,14.7L13.9,14.7c0.1,0.1,0.1,0.1,0.2,0.1c0,0,0,0,0.1,0c0,0,0,0,0.1,0
		c0,0,0.1-0.1,0.1-0.1c0,0,0.1-0.1,0.1-0.1l0.2-0.3l-0.1-0.1c0,0,0,0,0,0c0,0,0,0,0,0l-0.6-0.5l0,0c0,0,0,0,0,0s0,0,0,0c0,0,0,0,0,0
		l-0.1-0.1l-0.2,0.2l0.1,0.1c0,0,0,0,0,0c0,0,0,0,0,0c0,0,0,0,0,0l0.1,0.1l0,0.1c0,0.1,0,0.1-0.1,0.2c0,0.1,0,0.1,0,0.2
		C13.8,14.6,13.8,14.7,13.9,14.7 M14,14.5C14,14.5,14,14.5,14,14.5l-0.1-0.2c0,0,0-0.1,0-0.1c0-0.1,0.1-0.2,0.1-0.2l0.3,0.3l0,0
		c0,0-0.1,0.1-0.1,0.1C14.2,14.6,14.1,14.6,14,14.5"/>
	<path class="st0" d="M3.4,10c0,4.1,2.9,7.4,6.6,7.4c3.6,0,6.6-3.3,6.6-7.4c0-4.1-2.9-7.4-6.6-7.4C6.4,2.6,3.4,5.9,3.4,10 M3.5,10
		c0-4,2.9-7.3,6.5-7.3c3.6,0,6.5,3.3,6.5,7.3c0,4-2.9,7.3-6.5,7.3C6.4,17.3,3.5,14,3.5,10"/>
	<path class="st0" d="M7.4,15.4c0,0-0.1,0.1-0.1,0.1c-0.1,0-0.1,0-0.2,0c-0.1,0-0.1-0.1-0.1-0.1c0-0.1,0-0.2,0.1-0.2
		c0,0,0.1,0,0.2,0c0.1,0,0.1,0.1,0.1,0.1C7.4,15.3,7.4,15.4,7.4,15.4 M8.5,16.5l-0.4-0.1l0-0.1c0,0,0.1,0,0.1,0h0.1c0,0,0,0,0,0
		l0.2-0.7c-0.1,0-0.1,0-0.1,0c0,0-0.1,0-0.1,0l0-0.1c0.1,0,0.1,0,0.2,0c0,0,0,0,0.1,0c0,0,0,0,0.1,0l0.1,0l-0.3,0.8v0c0,0,0,0,0,0
		c0,0,0,0,0,0c0,0,0,0,0,0C8.5,16.4,8.5,16.4,8.5,16.5L8.5,16.5z M9.8,16.1c0,0.1,0,0.1,0,0.2c0,0,0,0.1,0,0.1c0,0,0,0.1-0.1,0.1
		c0,0.1-0.1,0.1-0.2,0.1c0,0-0.1,0-0.1,0c0,0-0.1,0-0.1,0l-0.1,0c-0.1,0-0.1,0-0.2-0.1l0-0.2h0.1c0,0,0,0,0,0s0,0,0,0c0,0,0,0,0,0
		c0,0,0,0,0.1,0h0c0.1,0,0.1,0,0.2-0.1c0,0,0,0,0,0c0,0,0,0,0-0.1l0,0c0,0-0.1,0.1-0.2,0.1c-0.1,0-0.1,0-0.1,0c0,0,0,0-0.1-0.1
		c0,0-0.1-0.1-0.1-0.2c0,0,0-0.1,0-0.1c0-0.1,0-0.1,0-0.1c0,0,0,0,0-0.1c0,0,0,0,0.1-0.1c0,0,0.1,0,0.1-0.1c0,0,0.1,0,0.2,0
		c0.1,0,0.1,0,0.2,0.1c0,0,0,0,0.1,0.1c0,0,0,0,0,0.1C9.8,15.9,9.8,16,9.8,16.1 M9.6,16C9.6,16,9.6,15.9,9.6,16c0-0.1,0-0.1,0-0.1
		c0,0,0,0,0,0c0,0-0.1-0.1-0.1-0.1c0,0-0.1,0-0.1,0c0,0-0.1,0-0.1,0.1c0,0.1,0,0.2,0,0.2c0,0,0.1,0.1,0.1,0.1c0,0,0.1,0,0.1,0
		C9.6,16.1,9.6,16.1,9.6,16C9.6,16,9.6,16,9.6,16 M10.8,16.6l-0.4,0l0-0.1c0.1,0,0.1,0,0.1,0c0,0,0,0,0,0v0l-0.1-0.7
		c0,0-0.1,0-0.1,0c0,0-0.1,0-0.1,0l0-0.1c0.1,0,0.1,0,0.2-0.1c0,0,0.1,0,0.1-0.1l0.1,0l0.1,0.9v0c0,0,0,0,0,0h0.1
		C10.7,16.5,10.7,16.5,10.8,16.6L10.8,16.6z M11.9,16c0,0.1,0,0.1,0,0.2c0,0.1-0.1,0.1-0.1,0.2c-0.1,0.1-0.1,0.1-0.2,0.1
		c-0.1,0-0.1,0-0.2,0.1l-0.1-0.2l0.1,0c0,0,0,0.1,0.1,0.1c0,0,0.1,0,0.1,0l0,0h0c0.1,0,0.1-0.1,0.2-0.1c0.1,0,0.1-0.1,0.1-0.2
		c0,0,0-0.1-0.1-0.1c0,0-0.1,0-0.1,0c0,0-0.1,0-0.1,0l-0.1,0l-0.1-0.1c0,0,0.1,0,0.2-0.1c0,0,0.1-0.1,0.1-0.1c0,0,0-0.1-0.1-0.1
		c0,0-0.1,0-0.1,0c0,0,0,0-0.1,0c0,0-0.1,0.1-0.1,0.1l-0.1,0L11,15.6c0.1,0,0.1-0.1,0.1-0.1c0,0,0.1-0.1,0.1-0.1c0.1,0,0.2,0,0.3,0
		c0,0,0.1,0.1,0.1,0.1c0,0,0,0.1,0,0.1c0,0,0,0.1,0,0.1c0,0,0,0,0,0c0,0,0,0-0.1,0l0-0.1c0.1,0,0.1,0,0.1,0
		C11.7,15.8,11.8,15.9,11.9,16C11.8,15.9,11.9,16,11.9,16 M13,15.2c0,0,0,0.1,0,0.2c0,0,0,0.1-0.1,0.1c0,0-0.1,0-0.2,0
		c-0.1,0-0.2-0.1-0.1-0.2c0-0.1,0-0.1,0.1-0.1c0,0,0.1-0.1,0.2,0C12.9,15.1,12.9,15.2,13,15.2"/>
	<path class="st0" d="M5.3,10c0,2.9,2.1,5.3,4.7,5.3c2.6,0,4.7-2.4,4.7-5.3c0-2.9-2.1-5.3-4.7-5.3C7.4,4.6,5.3,7,5.3,10 M5.4,10
		c0-2.9,2.1-5.3,4.6-5.3c2.5,0,4.6,2.4,4.6,5.3c0,2.9-2.1,5.3-4.6,5.3C7.4,15.2,5.4,12.9,5.4,10"/>
	<path class="st0" d="M12.4,10.7l-0.1,0.1L12.1,11l-0.3,0.3l-0.5,0.4l0.1,0l0.3,0.1l-0.2,0.2L11.3,12l-0.2,0.1l-0.2,0.1l-0.1,0
		l-0.1,0l-0.1,0l-0.1,0l-0.1,0l0-0.1l0-0.1l0-0.1l-0.2-3.5v0l1.7-0.2l0-0.3h-1.7l0-0.2l0.1,0l0.1,0l0.1-0.1l0.1-0.1l0-0.1l0-0.1
		l0-0.1l0-0.1l0-0.1l0-0.1l0-0.1l-0.1-0.1l-0.2-0.1l-0.1,0l-0.1,0l-0.1,0l-0.1,0L9.7,6.8L9.6,6.8L9.5,6.9L9.5,7l0,0.1l0,0.1l0,0.1
		l0.1,0.2l0.1,0.1l0.1,0.1l0.1,0.1l0.1,0l0.1,0V8H8.2l0,0.3l1.6,0.2l0,0l-0.1,3l0,0.5l0,0.1l0,0.1l-0.1,0l-0.1,0l-0.1,0l-0.1,0
		L9,12.2l-0.1-0.1L8.6,12l-0.2-0.2l-0.2-0.2l0.3-0.1l-0.1-0.1l-0.4-0.3L7.8,11l-0.1-0.1l-0.1-0.1l0,0.6l0,0.3l0,0.3l0.1,0.3l0,0.1
		l0.1,0.2L8,12.6v0L8.1,12l0.3,0.3l0.2,0.1l0.2,0.1l0.2,0.1L9,12.8l0.2,0.1l0.3,0.1l0.1,0l0.2,0.1l0.1,0.1l0.1,0.1l0.1-0.1l0.1-0.1
		l0.2-0.1l0.1,0l0.3-0.1l0.2-0.1l0.2-0.1l0.2-0.1l0.2-0.1l0.2-0.1l0.3-0.3l0,0.3l0,0.3l0.1-0.1l0.1-0.1l0.1-0.1l0.1-0.1l0.1-0.3
		l0-0.3l0-0.3v-0.2L12.4,10.7z M10.1,7.2L10.1,7.2L10.1,7.2l-0.2,0l0,0l0,0l0,0l0,0.2L9.8,7.4l0-0.1l0-0.1l0-0.1l0-0.1L9.8,7L9.9,7
		l0.1,0l0.1,0l0,0l0,0l0.1,0.1l0,0.1l0,0.1l0,0.1l0,0.1l-0.1,0V7.4L10.1,7.2L10.1,7.2L10.1,7.2z"/>
</g>
</svg>
