<?xml version="1.0" encoding="utf-8"?>
<!-- Generator: Adobe Illustrator 21.0.0, SVG Export Plug-In . SVG Version: 6.00 Build 0)  -->
<svg version="1.1" id="Layer_1" xmlns="http://www.w3.org/2000/svg" xmlns:xlink="http://www.w3.org/1999/xlink" x="0px" y="0px"
	 viewBox="0 0 20 20" style="enable-background:new 0 0 20 20;" xml:space="preserve">
<style type="text/css">
	.st0{fill:#A7A9AC;}
</style>
<g>
	<path class="st0" d="M9.3,5.4v1.3V8v1.3h1.3V8V6.7V5.4H9.3z M8,4.1h1.3h1.3H12v1.3v1.3V8v1.3v1.3V12v1.3v1.3v1.3h-1.3v-1.3v-1.3V12
		v-1.3H9.3V12v1.3v1.3v1.3H8v-1.3v-1.3V12v-1.3V9.3V8V6.7V5.4V4.1z M4.1,4.1h1.3h1.3v1.3H5.4v1.3V8v1.3h1.3v1.3H5.4V12v1.3v1.3h1.3
		v1.3H5.4H4.1v-1.3v-1.3V12v-1.3V9.3V8V6.7V5.4V4.1z M13.3,4.1h1.3h1.3v1.3h-1.3v1.3V8v1.3v1.3V12v1.3v1.3h1.3v1.3h-1.3h-1.3v-1.3
		v-1.3V12v-1.3V9.3V8V6.7V5.4V4.1z"/>
</g>
</svg>
