<?xml version="1.0" encoding="utf-8"?>
<!-- Generator: Adobe Illustrator 21.0.0, SVG Export Plug-In . SVG Version: 6.00 Build 0)  -->
<svg version="1.1" id="Layer_1" xmlns="http://www.w3.org/2000/svg" xmlns:xlink="http://www.w3.org/1999/xlink" x="0px" y="0px"
	 viewBox="0 0 20 20" style="enable-background:new 0 0 20 20;" xml:space="preserve">
<style type="text/css">
	.st0{fill:#A7A9AC;}
</style>
<g>
	<path class="st0" d="M13.1,14.4c-2.4,0-4.3-1.9-4.3-4.3c0-2.4,1.9-4.3,4.3-4.3c1.4,0,2.7,0.7,3.4,1.7l1.8,0c-0.9-2-3-3.3-5.3-3.3
		c-3,0-5.4,2.2-5.8,5.1H3.7c-0.1,0-0.1-0.1-0.1-0.1V6.5c0-0.3,0.3-0.4,0.3-0.4h3.8V4H3.3C2.5,4.1,1.7,4.9,1.6,5.9v9.8
		c0,0.2,0.3,0.3,0.3,0.3h1.7l0,0V11c0-0.1,0.1-0.1,0.1-0.1h3.6c0.4,2.9,2.8,5.1,5.8,5.1c2.3,0,4.3-1.3,5.3-3.3l-1.9,0
		C15.7,13.8,14.5,14.4,13.1,14.4"/>
	<path class="st0" d="M13.1,8.1c0.7,0,1.3,0.3,1.7,0.8l1.7,0c-0.5-1.4-1.8-2.4-3.4-2.4c-2,0-3.6,1.6-3.6,3.6s1.6,3.6,3.6,3.6
		c1.5,0,2.8-1,3.3-2.3l-1.7,0c-0.4,0.5-1,0.8-1.6,0.8c-1.1,0-2-0.9-2-2S12,8.1,13.1,8.1"/>
</g>
</svg>
