<?xml version="1.0" encoding="utf-8"?>
<!-- Generator: Adobe Illustrator 21.0.0, SVG Export Plug-In . SVG Version: 6.00 Build 0)  -->
<svg version="1.1" id="Layer_1" xmlns="http://www.w3.org/2000/svg" xmlns:xlink="http://www.w3.org/1999/xlink" x="0px" y="0px"
	 viewBox="0 0 20 20" style="enable-background:new 0 0 20 20;" xml:space="preserve">
<style type="text/css">
	.st0{fill:#ADABB0;}
	.st1{fill:#A7A9AC;}
</style>
<g>
	<path class="st0" d="M10,3.2c-3.7,0-6.8,3-6.8,6.8c0,3.7,3,6.8,6.8,6.8c3.7,0,6.8-3,6.8-6.8C16.8,6.3,13.7,3.2,10,3.2 M10,17.5
		c-4.2,0-7.5-3.4-7.5-7.5c0-4.2,3.4-7.5,7.5-7.5c4.2,0,7.5,3.4,7.5,7.5C17.5,14.2,14.2,17.5,10,17.5"/>
	<path class="st1" d="M13.5,11.4c-0.4,0-0.7-0.4-0.7-0.8c0-0.1,0-0.2,0-0.2c0.1-0.2,0.3-0.4,0.6-0.4c0.4,0,0.6,0.3,0.6,0.7
		C14.1,11.1,13.8,11.4,13.5,11.4 M14.6,7.9c-0.1,0-0.2,0-0.4,0c-0.7,0-1.2,0.2-1.6,0.6c-0.4,0.4-0.7,1.1-0.7,1.8
		c0,1,0.5,1.8,1.6,1.8c0.9,0,1.5-0.7,1.5-1.5c0-0.9-0.6-1.4-1.3-1.4c-0.4,0-0.7,0.1-0.9,0.3h0c0.1-0.5,0.5-0.9,1.4-1
		c0.2,0,0.3,0,0.4,0V7.9z M11.3,12.1v-0.8H9.8v0l0.4-0.3c0.6-0.5,1.1-1.1,1.1-1.8c0-0.8-0.5-1.3-1.5-1.3c-0.6,0-1,0.2-1.4,0.4L8.7,9
		c0.2-0.2,0.5-0.3,0.9-0.3c0.5,0,0.7,0.3,0.7,0.6c0,0.5-0.5,1-1.4,1.8l-0.5,0.5v0.6H11.3z M5.9,10.2c0-0.3,0.2-0.6,0.6-0.6
		C6.9,9.5,7,9.9,7,10.2H5.9z M7.9,10.8c0-0.1,0-0.2,0-0.4c0-0.8-0.4-1.6-1.4-1.6C5.5,8.9,5,9.8,5,10.5c0,1,0.6,1.6,1.7,1.6
		c0.4,0,0.8-0.1,1.1-0.2l-0.1-0.7c-0.3,0.1-0.5,0.1-0.9,0.1c-0.5,0-0.8-0.2-0.9-0.6H7.9z"/>
</g>
</svg>
