<?xml version="1.0" encoding="utf-8"?>
<!-- Generator: Adobe Illustrator 21.0.0, SVG Export Plug-In . SVG Version: 6.00 Build 0)  -->
<svg version="1.1" id="Layer_1" xmlns="http://www.w3.org/2000/svg" xmlns:xlink="http://www.w3.org/1999/xlink" x="0px" y="0px"
	 viewBox="0 0 20 20" style="enable-background:new 0 0 20 20;" xml:space="preserve">
<style type="text/css">
	.st0{fill:#A7A9AC;}
</style>
<g>
	<path class="st0" d="M9.9,7c1.9,0,3.6,0.7,4.1,0.9V9c-0.3-0.2-0.5-0.3-1.7-0.3c-1.2,0-2.6,0.6-2.6,1.6c0,1,0.9,1.8,2.3,1.8
		c0.7,0,1.4,0,2.1-0.4v1.2c0,0-1.8,0.9-4.2,0.9c-2.7,0-5.1-1.2-5.1-3.6c0-1.2,0.8-2.2,1.9-2.7C7.6,7.1,8.8,7,9.9,7"/>
	<polygon class="st0" points="12.8,9.4 15.2,9.4 15.2,10.2 14.6,10.2 14.6,11.4 13.4,11.4 13.4,10.2 12.8,10.2 	"/>
	<path class="st0" d="M10,3C8.8,3,3,7.2,2.8,8.2c-0.1,0.4,0.3,2.3,1,4.5c0.8,2.6,1.5,3.9,1.7,4C5.8,16.9,7.6,17,9.9,17
		c2.6,0,4.3-0.1,4.5-0.3c0.5-0.3,3-7.6,2.8-8.5c-0.1-0.4-1.5-1.6-3.3-3C12.1,3.9,10.5,3,10,3 M9.9,17.8c-0.7,0-4.3,0-4.9-0.3
		c-0.6-0.3-1.6-3.5-2-4.4C2.5,11,1.9,8.7,2,8.1c0.2-0.8,3-2.9,3.6-3.3C7.2,3.6,9.2,2.2,10,2.2c0.7,0,2.7,1.3,4.4,2.5
		C15.9,5.9,17.8,7.4,18,8c0.3,1.1-2.4,8.9-3,9.4C14.4,17.7,10.4,17.8,9.9,17.8"/>
</g>
</svg>
