<?xml version="1.0" encoding="utf-8"?>
<!-- Generator: Adobe Illustrator 21.0.0, SVG Export Plug-In . SVG Version: 6.00 Build 0)  -->
<svg version="1.1" id="Layer_1" xmlns="http://www.w3.org/2000/svg" xmlns:xlink="http://www.w3.org/1999/xlink" x="0px" y="0px"
	 viewBox="0 0 20 20" style="enable-background:new 0 0 20 20;" xml:space="preserve">
<style type="text/css">
	.st0{fill:#A7A9AC;}
</style>
<g>
	<path class="st0" d="M2.4,10c1.3,2.2,2.4,4.5,3.8,6.6h7.5c1.4-2.1,2.6-4.4,3.8-6.6c-1.3-2.2-2.4-4.6-3.8-6.6H6.3
		C4.9,5.5,3.6,7.7,2.4,10 M5.7,2.4h8.7c1.6,2.4,2.9,5,4.4,7.6c-1.4,2.6-2.9,5.1-4.4,7.6H5.7c-1.6-2.4-2.9-5.1-4.4-7.6
		C2.7,7.4,4.1,4.9,5.7,2.4"/>
	<path class="st0" d="M10,6.2C9.9,6.5,9.6,6.7,9.4,6.9C8.6,6.1,7,6.4,6.6,7.4c-0.5,1.5,0.7,2.6,2.6,2.3c0.1,0.3,0.1,0.6,0.1,0.9
		C6.5,9.9,5.6,13.4,7.7,14c0.8,0.1,1.3-0.1,1.7-0.5c0.3,0.1,0.5,0.3,0.7,0.5c-0.4,0.5-1,0.9-1.8,0.9c-2.5,0.1-3.8-3.3-1.7-4.7
		C6.4,9.9,6.1,9.8,5.9,9.5C4.3,6.9,7.8,4.1,10,6.2"/>
	<path class="st0" d="M10.8,9.5c1.2-0.1,1.6,0.7,2,1.5c0.3-0.8,0.7-1.5,1.9-1.5v0.8c-1.8,0.2-1.7,3.5,0,3.7v0.7
		c-1.1,0-1.7-0.6-1.9-1.5c-0.5,0.7-0.8,1.6-2.1,1.5V14c1.7-0.2,1.8-3.6,0-3.7V9.5z"/>
</g>
</svg>
