<?xml version="1.0" encoding="utf-8"?>
<!-- Generator: Adobe Illustrator 21.0.0, SVG Export Plug-In . SVG Version: 6.00 Build 0)  -->
<svg version="1.1" id="Layer_1" xmlns="http://www.w3.org/2000/svg" xmlns:xlink="http://www.w3.org/1999/xlink" x="0px" y="0px"
	 viewBox="0 0 20 20" style="enable-background:new 0 0 20 20;" xml:space="preserve">
<style type="text/css">
	.st0{fill:#A7A9AC;}
</style>
<g>
	<path class="st0" d="M8.1,14.2V16c-0.2,0-0.4,0-0.6,0c-3.3,0-6-2.7-6-6c0-3.3,2.7-6,6-6c0.2,0,0.4,0,0.6,0v1.8c-0.2,0-0.4,0-0.6,0
		c-2.3,0-4.2,1.9-4.2,4.2c0,2.3,1.9,4.2,4.2,4.2C7.7,14.2,7.9,14.2,8.1,14.2"/>
	<path class="st0" d="M13.7,9.1h3.5v1.8h-3.5c0.4,1.9,2.1,3.3,4.1,3.3c0.2,0,0.4,0,0.6,0V16c-0.2,0-0.4,0-0.6,0c-3.3,0-6-2.7-6-6
		c0-3.3,2.7-6,6-6c0.2,0,0.4,0,0.6,0v1.8c-0.2,0-0.4,0-0.6,0C15.8,5.8,14.1,7.2,13.7,9.1"/>
</g>
</svg>
